<svg xmlns="http://www.w3.org/2000/svg" width="650" height="454" viewBox="0 0 650 454" fill="none"><path d="M624.948 -207.526C549.14 -239.223 467.671 -237.04 397.312 -208.079C486.124 -154.906 525.021 -43.374 483.98 54.7822C442.939 152.939 336.31 203.783 236.001 177.721C264.806 248.144 320.475 307.667 396.282 339.364C547.352 402.529 721.075 331.301 784.206 180.313C847.338 29.324 776.017 -144.361 624.948 -207.526Z" fill="#00DFBD"/><path d="M397.313 -208.076C388.732 -213.267 379.786 -217.97 370.225 -221.968C262.318 -267.086 138.369 -216.265 93.2749 -108.416C48.1811 -0.567361 99.0676 123.355 206.974 168.473C216.536 172.471 226.223 175.399 235.889 177.997C207.243 107.96 205.323 26.9653 236.775 -48.256C268.226 -123.477 327.226 -179 397.199 -207.803L397.313 -208.076Z" fill="#0090FF"/><path d="M483.847 54.7274C524.945 -43.5654 486.185 -155.04 397.178 -208.133C327.206 -179.331 268.206 -123.808 236.754 -48.5869C205.303 26.6344 207.222 107.629 235.868 177.666C336.097 203.535 442.806 152.884 483.847 54.7274Z" fill="#0079C5"/></svg>