<svg xmlns="http://www.w3.org/2000/svg" width="210" height="181" viewBox="0 0 210 181" fill="none"><path d="M348.296 362.798C300.3 382.864 248.693 381.417 204.102 362.977C260.32 329.286 284.875 258.507 258.804 196.159C232.733 133.811 165.152 101.451 101.632 117.922C119.825 73.2334 155.043 35.4859 203.039 15.4196C298.685 -24.5683 408.782 20.7831 448.886 116.689C488.989 212.596 443.942 322.81 348.296 362.798Z" fill="#00DFBD"/><path d="M203.825 363.178C198.395 366.467 192.734 369.445 186.682 371.975C118.385 400.531 39.8561 368.181 11.2199 299.693C-17.4164 231.205 14.7142 152.587 83.0115 124.03C89.0632 121.5 95.1957 119.649 101.314 118.007C83.2269 162.44 82.0721 213.848 102.045 261.616C122.018 309.384 159.421 344.671 203.752 363.005L203.825 363.178Z" fill="#0090FF"/><path d="M258.571 196.324C284.672 258.747 260.209 329.478 203.881 363.113C159.546 344.777 122.139 309.489 102.165 261.717C82.1899 213.946 83.3446 162.535 101.434 118.1C164.889 101.755 232.506 133.987 258.571 196.324Z" fill="#0079C5"/></svg>