<svg class="how-block__bg" viewBox="0 0 1067 845" fill="none" xmlns="http://www.w3.org/2000/svg">
    <g opacity="0.04">
        <path d="M644.362 0C527.301 0 421.42 47.6426 344.855 124.377C490.812 145.457 603.233 270.677 603.233 422.248C603.233 573.819 491.023 699.249 344.855 720.119C421.42 796.853 527.301 844.496 644.362 844.496C877.64 844.496 1066.84 655.401 1066.84 422.248C1066.84 189.095 877.64 0 644.362 0Z" fill="#00DFBD"></path>
        <path d="M344.855 124.382C330.723 122.274 316.381 121.009 301.616 121.009C134.989 121.009 0 255.926 0 422.464C0 589.002 134.989 723.919 301.616 723.919C316.381 723.919 330.723 722.443 344.855 720.546C268.713 644.234 221.677 538.83 221.677 422.675C221.677 306.52 268.713 201.116 344.855 124.803V124.382Z" fill="#0090FF"></path>
        <path d="M603.023 422.249C603.023 270.467 490.813 145.247 344.645 124.377C268.503 200.69 221.468 306.094 221.468 422.249C221.468 538.404 268.503 643.808 344.645 720.12C490.602 699.039 603.023 573.819 603.023 422.249Z" fill="#0079C5"></path>
    </g>
</svg>