<svg viewBox="0 0 174 28" fill="none" xmlns="http://www.w3.org/2000/svg">
    <path d="M109.93 0.493896C107.043 0.493896 104.431 1.66887 102.543 3.56132C106.143 4.08122 108.915 7.16943 108.915 10.9075C108.915 14.6456 106.148 17.739 102.543 18.2537C104.431 20.1462 107.043 21.3212 109.93 21.3212C115.683 21.3212 120.349 16.6576 120.349 10.9075C120.349 5.15741 115.683 0.493896 109.93 0.493896Z" fill="#00DFBD"/>
    <path d="M102.543 3.56133C102.195 3.50934 101.841 3.47815 101.477 3.47815C97.3672 3.47815 94.0381 6.80552 94.0381 10.9127C94.0381 15.02 97.3672 18.3473 101.477 18.3473C101.841 18.3473 102.195 18.3109 102.543 18.2642C100.665 16.3821 99.5052 13.7826 99.5052 10.9179C99.5052 8.05328 100.665 5.45378 102.543 3.57173V3.56133Z" fill="#0090FF"/>
    <path d="M108.91 10.9075C108.91 7.1642 106.143 4.07598 102.538 3.56128C100.66 5.44332 99.5 8.04283 99.5 10.9075C99.5 13.7721 100.66 16.3717 102.538 18.2537C106.137 17.7338 108.91 14.6456 108.91 10.9075Z" fill="#0079C5"/>
    <path d="M133.249 0.493896C129.056 0.493896 125.654 3.88885 125.654 8.08446C125.654 8.33401 125.67 8.57837 125.691 8.81752H125.654V21.3939H128.812V14.2349C130.06 15.1343 131.59 15.675 133.249 15.675C137.442 15.675 140.844 12.2801 140.844 8.08446C140.844 3.88885 137.447 0.493896 133.249 0.493896ZM133.249 12.514C130.799 12.514 128.812 10.528 128.812 8.07926C128.812 5.63053 130.799 3.6445 133.249 3.6445C135.699 3.6445 137.686 5.63053 137.686 8.07926C137.686 10.528 135.699 12.514 133.249 12.514Z" fill="#00DFBD"/>
    <path d="M149.354 6.21277C145.161 6.21277 141.759 9.60773 141.759 13.8033C141.759 17.9989 145.156 21.3939 149.354 21.3939C151.013 21.3939 152.543 20.8584 153.791 19.9538V21.3939H156.949V13.8033C156.949 9.61292 153.552 6.21277 149.354 6.21277ZM149.354 18.2329C146.904 18.2329 144.917 16.2469 144.917 13.7981C144.917 11.3494 146.904 9.36337 149.354 9.36337C151.804 9.36337 153.791 11.3494 153.791 13.7981C153.791 16.2469 151.804 18.2329 149.354 18.2329Z" fill="#00DFBD"/>
    <path d="M170.842 6.21277V13.8033C170.842 16.2521 168.855 18.2381 166.405 18.2381C163.955 18.2381 161.968 16.2521 161.968 13.8033V6.21277H158.811V13.8033C158.811 17.9937 162.207 21.3939 166.405 21.3939C168.065 21.3939 169.594 20.8584 170.842 19.9538V27.0608H174V6.21277H170.842Z" fill="#00DFBD"/>
    <path d="M41.6613 5.95801C37.297 5.95801 33.7598 9.49334 33.7598 13.8553C33.7598 18.2173 37.297 21.7526 41.6613 21.7526C46.0256 21.7526 49.5628 18.2173 49.5628 13.8553C49.5628 9.49334 46.0256 5.95801 41.6613 5.95801ZM41.6613 18.472C39.1124 18.472 37.0473 16.408 37.0473 13.8605C37.0473 11.313 39.1124 9.24899 41.6613 9.24899C44.2102 9.24899 46.2753 11.313 46.2753 13.8605C46.2753 16.408 44.2102 18.472 41.6613 18.472Z" fill="#0090FF"/>
    <path d="M7.90152 0C3.53722 0 0 3.53533 0 7.89731C0 8.15726 0.0156054 8.41201 0.0364126 8.66156H0V21.7527H3.28753V14.2973C4.58798 15.2331 6.17973 15.7946 7.90152 15.7946C12.2658 15.7946 15.803 12.2593 15.803 7.89731C15.803 3.53533 12.2658 0 7.90152 0ZM7.90152 12.514C5.35264 12.514 3.28753 10.45 3.28753 7.9025C3.28753 5.35499 5.35264 3.28578 7.90152 3.28578C10.4504 3.28578 12.5155 5.34979 12.5155 7.89731C12.5155 10.4448 10.4504 12.5088 7.90152 12.5088V12.514Z" fill="#0090FF"/>
    <path d="M72.3515 0H69.064V21.6227H72.3515V0Z" fill="#0090FF"/>
    <path d="M59.0666 5.823C54.7023 5.823 51.165 9.35833 51.165 13.7203V27.6537H54.4526V20.1255C55.753 21.0613 57.3448 21.6228 59.0666 21.6228C63.4309 21.6228 66.9681 18.0875 66.9681 13.7255C66.9681 9.36353 63.4309 5.8282 59.0666 5.8282V5.823ZM59.0666 18.337C56.5177 18.337 54.4526 16.273 54.4526 13.7255C54.4526 11.178 56.5177 9.11398 59.0666 9.11398C61.6154 9.11398 63.6806 11.178 63.6806 13.7255C63.6806 16.273 61.6154 18.337 59.0666 18.337Z" fill="#0090FF"/>
    <path d="M28.5112 15.4982H31.9288C32.0432 14.9679 32.1004 14.4168 32.1004 13.8553C32.1004 9.49334 28.5632 5.95801 24.1989 5.95801C19.8346 5.95801 16.2974 9.49334 16.2974 13.8553C16.2974 18.2173 19.8346 21.7526 24.1989 21.7526C27.3876 21.7526 30.1289 19.8602 31.3774 17.1411H27.4344C26.6021 17.9625 25.4577 18.472 24.1937 18.472C22.2222 18.472 20.5472 17.2347 19.8866 15.4982H28.506H28.5112ZM24.2041 9.24379C26.1756 9.24379 27.8505 10.4812 28.5112 12.2124H19.8918C20.5524 10.476 22.2326 9.24379 24.1989 9.24379H24.2041Z" fill="#0090FF"/>
    <path d="M86.5161 15.4982H89.9336C90.0481 14.9679 90.1053 14.4168 90.1053 13.8553C90.1053 9.49334 86.5681 5.95801 82.2038 5.95801C77.8395 5.95801 74.3022 9.49334 74.3022 13.8553C74.3022 18.2173 77.8395 21.7526 82.2038 21.7526C85.3925 21.7526 88.1338 19.8602 89.3822 17.1411H85.4393C84.607 17.9625 83.4626 18.472 82.1986 18.472C80.2271 18.472 78.5521 17.2347 77.8915 15.4982H86.5109H86.5161ZM82.209 9.24379C84.1804 9.24379 85.8554 10.4812 86.5161 12.2124H77.8967C78.5573 10.476 80.2375 9.24379 82.2038 9.24379H82.209Z" fill="#0090FF"/>
</svg>