<svg xmlns="http://www.w3.org/2000/svg" width="26" height="26" viewBox="0 0 26 26" fill="none"><path fill-rule="evenodd" clip-rule="evenodd" d="M22.75 7.3125V22.75C22.75 23.612 22.4076 24.4386 21.7981 25.0481C21.1886 25.6576 20.362 26 19.5 26H17.875V24.375H19.5C19.931 24.375 20.3443 24.2038 20.649 23.899C20.9538 23.5943 21.125 23.181 21.125 22.75V7.3125H17.875C17.2285 7.3125 16.6085 7.05569 16.1514 6.59857C15.6943 6.14145 15.4375 5.52147 15.4375 4.875V1.625H6.5C6.06902 1.625 5.6557 1.7962 5.35095 2.10095C5.0462 2.4057 4.875 2.81902 4.875 3.25V17.875H3.25V3.25C3.25 2.38805 3.59241 1.5614 4.2019 0.951903C4.8114 0.34241 5.63805 0 6.5 0L15.4375 0L22.75 7.3125ZM2.6 19.2563H0V25.7546H1.28537V23.5739H2.59025C3.05662 23.5739 3.45312 23.4812 3.77975 23.2927C4.10962 23.1026 4.3615 22.8459 4.53212 22.5225C4.70923 22.1832 4.79914 21.8051 4.79375 21.4224C4.79375 21.0161 4.70762 20.6489 4.537 20.3222C4.36729 19.9976 4.10782 19.7285 3.7895 19.5471C3.4645 19.3521 3.06963 19.2563 2.6 19.2563ZM3.48563 21.4224C3.49148 21.6365 3.44402 21.8487 3.3475 22.0399C3.26091 22.2063 3.12612 22.3428 2.96075 22.4315C2.77158 22.5251 2.56234 22.5708 2.35138 22.5647H1.2805V20.28H2.353C2.70725 20.28 2.98513 20.3775 3.185 20.5741C3.38488 20.7724 3.48563 21.0551 3.48563 21.4224ZM5.46325 19.2563V25.7546H7.83575C8.48738 25.7546 9.0285 25.6246 9.4575 25.3695C9.89163 25.1098 10.2306 24.7172 10.4244 24.2499C10.6356 23.7624 10.7429 23.1741 10.7429 22.4884C10.7429 21.8059 10.6372 21.2241 10.4244 20.7415C10.2329 20.2795 9.89716 19.8919 9.46725 19.6365C9.03825 19.383 8.49388 19.2563 7.83413 19.2563H5.46325ZM6.74862 20.3044H7.6635C8.0665 20.3044 8.39475 20.3856 8.65312 20.5514C8.92131 20.7268 9.12365 20.9863 9.22837 21.2891C9.35675 21.6157 9.42013 22.0236 9.42013 22.5128C9.42516 22.8369 9.38802 23.1602 9.30963 23.4748C9.25173 23.7228 9.14331 23.9562 8.99113 24.1605C8.84974 24.3427 8.66241 24.4841 8.44837 24.57C8.19758 24.6638 7.93121 24.7091 7.6635 24.7032H6.74862V20.3044ZM12.831 23.1693V25.7546H11.5472V19.2563H15.6878V20.3174H12.831V22.1325H15.4408V23.1693H12.831Z" fill="white"/></svg>