<svg xmlns="http://www.w3.org/2000/svg" width="24" height="24" viewBox="0 0 60 60" fill="none">
    <path d="M30 60C46.5685 60 60 46.5685 60 30C60 13.4315 46.5685 0 30 0C13.4315 0 0 13.4315 0 30C0 46.5685 13.4315 60 30 60Z" fill="#0090FF"/>
    <path d="M18.2535 34.378L21.5831 45.2933C21.6405 45.4653 21.8934 45.4374 21.9111 45.2565L22.7758 36.2737C22.7802 36.2311 22.7994 36.1913 22.8317 36.1634L38.7634 22.3377C38.9163 22.2024 38.7413 21.9627 38.5663 22.0671L18.3286 34.1795C18.2594 34.2192 18.2285 34.303 18.255 34.378H18.2535Z" fill="#CAD9EC"/>
    <path d="M21.9102 45.2933L43.4553 20.7568L22.7808 36.2076L21.9102 45.2933Z" fill="#B2C2D3"/>
    <path d="M9.9578 30.0031L43.0271 16.8289C43.8624 16.4965 44.7316 17.2274 44.5463 18.1069L38.7489 45.6803C38.5342 46.7039 37.3283 47.1568 36.4929 46.5274L22.782 36.2078L38.5327 22.2527L18.2112 34.2489L10.0107 31.6017C9.25336 31.3575 9.21806 30.2972 9.9578 30.0031Z" fill="#FDFFFC"/>
</svg>